<svg xmlns="http://www.w3.org/2000/svg" xmlns:xlink="http://www.w3.org/1999/xlink" xml:space="preserve" style="shape-rendering:geometricPrecision;text-rendering:geometricPrecision;image-rendering:optimizeQuality;" viewBox="0 0 100 125" x="0px" y="0px" fill-rule="evenodd" clip-rule="evenodd"><defs><style type="text/css">
   
    .fil0 {fill:black}
   
  </style></defs><g><path class="fil0" d="M28.6349 65.1856c1.61458,-12.9438 17.3623,-12.3686 21.3651,-12.3686 4.00161,0 19.7505,-0.575201 21.3639,12.3686 0.824416,6.61304 -0.18071,17.51 -5.50752,19.9572l-3.02955 0 0 -10.1103c0.553941,-1.60986 -3.13703,-2.40238 -3.13703,-0.06378l0 10.1741 -19.4364 0 0 -10.1103c0.553941,-1.60986 -3.13703,-2.40238 -3.13703,-0.06378l0 10.1741 -2.97404 0c-5.32563,-2.44726 -6.33194,-13.3442 -5.50752,-19.9572zm-23.4368 -3.77365c1.26025,-10.1103 13.5627,-9.66267 16.6891,-9.66267 1.83072,0 6.80557,-0.151182 10.8698,1.75159 -0.762998,0.507878 -1.49174,1.08426 -2.18269,1.7386 -2.61262,2.47679 -4.14925,5.72367 -4.62287,9.5233 -0.427562,3.43113 -0.428744,8.00439 0.406302,12.2375l-12.0851 0 0 -7.89691c0.434649,-1.25788 -2.44963,-1.87679 -2.44963,-0.0496067l0 7.94652 -2.32325 0c-4.15988,-1.91104 -4.94531,-10.4233 -4.30161,-15.5883zm16.6891 -33.8495c5.06224,0 9.16779,4.6146 9.16779,10.3052 0,5.6906 -4.10554,10.3076 -9.16779,10.3076 -5.06224,0 -9.16897,-4.61697 -9.16897,-10.3076 0,-5.6906 4.10673,-10.3052 9.16897,-10.3052zm45.3382 25.9455c4.06657,-1.90986 9.0544,-1.75868 10.8875,-1.75868 3.1264,0 15.4277,-0.447641 16.6879,9.66267 0.643706,5.165 -0.140552,13.6773 -4.30161,15.5883l-2.36695 0 0 -7.89691c0.432287,-1.25788 -2.44963,-1.87679 -2.44963,-0.0496067l0 7.94652 -12.0426 0c0.835046,-4.2331 0.836227,-8.80637 0.408665,-12.2375 -0.649611,-5.20634 -3.19727,-8.87133 -6.82328,-11.2548zm10.8875 -25.9455c5.06224,0 9.16779,4.6146 9.16779,10.3052 0,5.6906 -4.10554,10.3076 -9.16779,10.3076 -5.06224,0 -9.16779,-4.61697 -9.16779,-10.3076 0,-5.6906 4.10554,-10.3052 9.16779,-10.3052zm-28.1128 -5.71304c6.48076,0 11.7367,5.9091 11.7367,13.1954 0,7.28628 -5.25595,13.1954 -11.7367,13.1954 -6.48194,0 -11.7379,-5.9091 -11.7379,-13.1954 0,-7.28628 5.25595,-13.1954 11.7379,-13.1954z"/></g><text x="0" y="115" fill="#000000" font-size="5px" font-weight="bold" font-family="'Helvetica Neue', Helvetica, Arial-Unicode, Arial, Sans-serif">Created by Richard</text><text x="0" y="120" fill="#000000" font-size="5px" font-weight="bold" font-family="'Helvetica Neue', Helvetica, Arial-Unicode, Arial, Sans-serif">from the Noun Project</text></svg>